HIERARCHY
ROOT Hips
{
  OFFSET 0 0 0
  CHANNELS 6 Xposition Yposition Zposition Zrotation Yrotation Xrotation
  JOINT LeftThigh
  {
    OFFSET 8.409438 0 -5.917753
    CHANNELS 3 Zrotation Yrotation Xrotation
    JOINT LeftLeg
    {
      OFFSET 0 0 -42.358652
      CHANNELS 3 Zrotation Yrotation Xrotation
      JOINT LeftFoot
      {
        OFFSET 0 0 -39.357303
        CHANNELS 3 Zrotation Yrotation Xrotation
      }
    }
  }
  JOINT RightThigh
  {
    OFFSET -8.409438 0 -5.917753
    CHANNELS 3 Zrotation Yrotation Xrotation
    JOINT RightLeg
    {
      OFFSET 0 0 -42.358652
      CHANNELS 3 Zrotation Yrotation Xrotation
      JOINT RightFoot
      {
        OFFSET 0 0 -39.357303
        CHANNELS 3 Zrotation Yrotation Xrotation
      }
    }
  }
  JOINT SpineLow
  {
    OFFSET 0 0 4.719101
    CHANNELS 3 Zrotation Yrotation Xrotation
    JOINT SpineMid
    {
      OFFSET 0 0 12.899191
      CHANNELS 3 Zrotation Yrotation Xrotation
      JOINT Chest
      {
        OFFSET 0 0 12.899191
        CHANNELS 3 Zrotation Yrotation Xrotation
        JOINT LeftShoulder
        {
          OFFSET 7.550562 1.41573 9.438202
          CHANNELS 3 Zrotation Yrotation Xrotation
          JOINT LeftArm
          {
            OFFSET 9.155056 0 4.247191
            CHANNELS 3 Zrotation Yrotation Xrotation
            JOINT LeftForearm
            {
              OFFSET 0 0 25.771955
              CHANNELS 3 Zrotation Yrotation Xrotation
              JOINT LeftHand
              {
                OFFSET 0 0 25.197169
                CHANNELS 3 Zrotation Yrotation Xrotation
              }
            }
          }
        }
        JOINT RightShoulder
        {
          OFFSET -7.550562 1.41573 9.438202
          CHANNELS 3 Zrotation Yrotation Xrotation
          JOINT RightArm
          {
            OFFSET -9.155056 0 4.247191
            CHANNELS 3 Zrotation Yrotation Xrotation
            JOINT RightForearm
            {
              OFFSET 0 0 -25.771955
              CHANNELS 3 Zrotation Yrotation Xrotation
              JOINT RightHand
              {
                OFFSET 0 0 -25.197169
                CHANNELS 3 Zrotation Yrotation Xrotation
              }
            }
          }
        }
        JOINT Neck
        {
          OFFSET 0 0 15.101124
          CHANNELS 3 Zrotation Yrotation Xrotation
          JOINT Head
          {
            OFFSET 0 0 11.325843
            CHANNELS 3 Zrotation Yrotation Xrotation
            End Site
            {
              OFFSET 0 0 14.157303
            }
          }
        }
      }
    }
  }
}
MOTION
Frames: 8
Frame Time: 0.0
0.0  93.25843  0.0  -3.462973  -4.850844  -92.463842  5.207823  -16.890003  1.860796  1.10203  -0.162449  10.006979  9.46794  1.620081  4.469602  -9.897743  3.533182  -4.223552  -2.369481  7.695335  8.7081  2.569854  1.412282  -0.493745  1.528588  0.436597  -0.612466  4.16732  1.231461  -1.64593  4.16732  1.231461  -1.64593  -34.755394  16.402734  18.91984  -152.082666  33.837979  -87.766694  -31.096542  26.071439  84.070452  49.616319  -7.886257  22.284798  2.51346  -24.026016  21.87475  118.782113  62.736421  50.309259  -26.709482  -26.864823  -108.854205  50.497251  -8.12567  -12.267112  -4.847072  -3.066478  9.286891  -3.588781  -2.374326  6.93969  
0.0  93.25843  0.0  -3.725018  -3.499412  -92.413411  5.656692  -17.504252  1.190074  -0.36132  0.280132  10.451708  9.365198  1.639636  4.497937  -10.609198  3.372817  -4.145961  -3.027727  7.791453  8.827123  2.709065  1.456616  -0.439434  1.410201  0.436868  -0.657771  3.842842  1.231916  -1.771967  3.842842  1.231916  -1.771968  -34.555148  16.591966  19.084201  -152.63208  33.68529  -88.250172  -31.260862  26.47837  83.449057  49.664142  -7.005392  23.062298  1.522257  -23.651414  21.661819  117.904318  62.020131  48.883569  -26.16352  -27.069621  -109.434584  50.566622  -8.242605  -12.054647  -5.146237  -3.209561  9.493538  -3.809854  -2.488014  7.091846  
0.0  93.25843  0.0  -3.89949  -1.674822  -92.292201  5.520484  -17.943106  0.08868  -1.431498  0.767211  11.456837  9.187147  1.615599  4.465571  -11.427806  3.331471  -4.10327  -3.49657  7.807372  9.074214  2.631247  1.445482  -0.355938  1.236919  0.455462  -0.7137  3.367602  1.280959  -1.927171  3.367602  1.280959  -1.92717  -34.428238  16.764819  19.239599  -153.289865  33.533058  -88.678777  -31.330377  26.436362  82.874891  49.631511  -6.145873  23.591225  1.041717  -23.292334  21.681153  116.776411  61.652405  47.680665  -25.725016  -27.21066  -109.992269  50.66793  -8.38696  -11.893496  -5.629353  -3.37652  9.636622  -4.168726  -2.622167  7.194977  
0.0  93.25843  0.0  -4.153306  0.367944  -92.196817  5.474533  -18.501642  -1.082042  -2.687918  1.285819  12.483723  8.907134  1.649317  4.399593  -12.528183  3.229479  -4.122232  -4.317282  7.868266  9.331977  2.840893  1.58165  -0.250805  1.043118  0.45234  -0.764224  2.836958  1.26898  -2.069208  2.836958  1.26898  -2.069208  -34.319254  17.01279  19.358343  -153.674374  33.314913  -89.132845  -31.178555  26.443106  82.454892  49.445485  -5.383351  23.828531  0.370278  -22.825043  21.636447  115.832598  61.091754  46.598159  -25.2163  -27.436822  -110.655796  50.863301  -8.499651  -11.785455  -6.147232  -3.497375  9.739736  -4.554568  -2.722116  7.268202  
0.0  93.25843  0.0  -4.42773  2.601199  -92.126936  5.188031  -19.026464  -2.442348  -3.874166  1.90472  13.72097  8.717288  1.607602  4.347608  -13.39261  3.16996  -4.076828  -5.042  7.888821  9.748027  2.724956  1.591325  -0.169362  0.824565  0.441893  -0.814041  2.238939  1.235306  -2.209974  2.238939  1.235306  -2.209974  -34.198733  17.297563  19.478239  -154.146309  33.144135  -89.542685  -31.041627  26.348779  82.050209  49.222558  -4.747586  23.72165  -0.268999  -22.318553  21.609447  114.924268  60.486188  45.60131  -24.690712  -27.653069  -111.346215  51.087741  -8.635937  -11.736937  -6.71937  -3.60035  9.814452  -4.98151  -2.809397  7.319849  
0.0  93.25843  0.0  -4.742414  4.930384  -92.0967  4.97964  -19.580784  -3.857809  -5.134166  2.575727  15.033986  8.492507  1.585016  4.211702  -14.22774  3.049356  -4.05807  -6.744526  7.878545  10.027424  3.040414  1.797739  -0.062964  0.59438  0.408324  -0.861076  1.610049  1.137034  -2.343679  1.610049  1.137034  -2.343679  -33.987217  17.720771  19.59989  -154.509915  33.006405  -89.969361  -30.880598  26.402143  81.725235  48.875137  -4.174081  23.339785  -0.939937  -21.751893  21.591649  114.211045  59.801203  44.845275  -24.167006  -27.843904  -112.046795  51.290343  -8.801659  -11.769697  -7.339055  -3.63573  9.848971  -5.445466  -2.846397  7.341809  
0.0  93.25843  0.0  -5.117357  7.192787  -92.130559  4.892426  -20.053949  -5.250177  -6.522059  3.214425  16.287341  8.533123  1.531913  4.11793  -14.727874  2.855535  -4.053085  -7.513451  8.038688  10.698618  2.975857  1.760617  0.030716  0.36329  0.356423  -0.896573  0.979715  0.987536  -2.445441  0.979715  0.987536  -2.445442  -33.81228  18.180379  19.64771  -154.965927  32.894161  -90.395491  -30.736646  26.226068  81.500413  48.537059  -3.639664  22.615255  -1.527057  -21.114277  21.560318  113.585347  59.12681  44.228083  -23.722535  -27.928557  -112.775395  51.377774  -9.015071  -11.8666  -7.86854  -3.639879  9.860364  -5.842435  -2.858267  7.347328  
0.0  93.25843  0.0  -5.522324  9.277797  -92.191796  4.977554  -20.404567  -6.622862  -7.842234  3.776134  17.548568  8.5692  1.495342  3.936327  -14.681006  2.58369  -4.095108  -8.363925  8.247304  11.512183  2.784406  1.696404  0.137825  0.160432  0.276755  -0.92066  0.427935  0.762458  -2.514786  0.427935  0.762458  -2.514786  -33.839106  18.706931  19.520622  -155.175657  32.68349  -90.932434  -30.430629  25.975577  81.471749  48.328167  -3.18445  21.613428  -2.100533  -20.383401  21.49616  113.135832  58.458472  43.857695  -23.503648  -27.761899  -113.353261  51.303589  -9.214109  -12.077693  -8.469457  -3.560107  9.785251  -6.294907  -2.807143  7.288861  
